<mxfile host="65bd71144e">
    <diagram id="IgW65GMP4rbCvjquv3Y-" name="第 1 页">
        <mxGraphModel dx="770" dy="1147" grid="1" gridSize="10" guides="1" tooltips="1" connect="1" arrows="1" fold="1" page="1" pageScale="1" pageWidth="827" pageHeight="1169" math="0" shadow="0">
            <root>
                <mxCell id="0"/>
                <mxCell id="1" parent="0"/>
                <mxCell id="2" value="" style="endArrow=none;html=1;strokeColor=#FF9933;fontColor=#3399FF;" edge="1" parent="1">
                    <mxGeometry width="50" height="50" relative="1" as="geometry">
                        <mxPoint x="170" y="695" as="sourcePoint"/>
                        <mxPoint x="170" y="295" as="targetPoint"/>
                    </mxGeometry>
                </mxCell>
                <mxCell id="3" value="" style="endArrow=none;html=1;strokeColor=#FF9933;fontColor=#3399FF;" edge="1" parent="1">
                    <mxGeometry width="50" height="50" relative="1" as="geometry">
                        <mxPoint x="330" y="695" as="sourcePoint"/>
                        <mxPoint x="330" y="295" as="targetPoint"/>
                    </mxGeometry>
                </mxCell>
                <mxCell id="4" value="&lt;font style=&quot;font-size: 16px;&quot;&gt;Tx&lt;/font&gt;" style="text;html=1;align=center;verticalAlign=middle;resizable=0;points=[];autosize=1;strokeColor=#FF9933;fillColor=none;fontColor=#3399FF;" vertex="1" parent="1">
                    <mxGeometry x="150" y="250" width="40" height="30" as="geometry"/>
                </mxCell>
                <mxCell id="5" value="&lt;font style=&quot;font-size: 16px;&quot;&gt;Rx&lt;/font&gt;" style="text;html=1;align=center;verticalAlign=middle;resizable=0;points=[];autosize=1;strokeColor=#FF9933;fillColor=none;fontColor=#3399FF;" vertex="1" parent="1">
                    <mxGeometry x="310" y="250" width="40" height="30" as="geometry"/>
                </mxCell>
                <mxCell id="6" style="edgeStyle=none;html=1;exitX=1;exitY=0.5;exitDx=0;exitDy=0;strokeColor=#FF9933;fontColor=#3399FF;" edge="1" parent="1" source="7">
                    <mxGeometry relative="1" as="geometry">
                        <mxPoint x="330" y="345" as="targetPoint"/>
                    </mxGeometry>
                </mxCell>
                <mxCell id="7" value="0" style="ellipse;whiteSpace=wrap;html=1;aspect=fixed;strokeColor=#FF9933;fontColor=#3399FF;" vertex="1" parent="1">
                    <mxGeometry x="180" y="305" width="20" height="20" as="geometry"/>
                </mxCell>
                <mxCell id="8" value="1" style="ellipse;whiteSpace=wrap;html=1;aspect=fixed;strokeColor=#FF9933;fontColor=#3399FF;" vertex="1" parent="1">
                    <mxGeometry x="180" y="345" width="20" height="20" as="geometry"/>
                </mxCell>
                <mxCell id="9" value="2" style="ellipse;whiteSpace=wrap;html=1;aspect=fixed;strokeColor=#FF9933;fontColor=#3399FF;" vertex="1" parent="1">
                    <mxGeometry x="180" y="385" width="20" height="20" as="geometry"/>
                </mxCell>
                <mxCell id="10" value="3" style="ellipse;whiteSpace=wrap;html=1;aspect=fixed;strokeColor=#FF9933;fontColor=#3399FF;" vertex="1" parent="1">
                    <mxGeometry x="180" y="425" width="20" height="20" as="geometry"/>
                </mxCell>
                <mxCell id="11" value="4" style="ellipse;whiteSpace=wrap;html=1;aspect=fixed;strokeColor=#FF9933;fontColor=#3399FF;" vertex="1" parent="1">
                    <mxGeometry x="180" y="465" width="20" height="20" as="geometry"/>
                </mxCell>
                <mxCell id="12" value="5" style="ellipse;whiteSpace=wrap;html=1;aspect=fixed;strokeColor=#FF9933;fontColor=#3399FF;" vertex="1" parent="1">
                    <mxGeometry x="180" y="505" width="20" height="20" as="geometry"/>
                </mxCell>
                <mxCell id="13" value="6" style="ellipse;whiteSpace=wrap;html=1;aspect=fixed;strokeColor=#FF9933;fontColor=#3399FF;" vertex="1" parent="1">
                    <mxGeometry x="180" y="545" width="20" height="20" as="geometry"/>
                </mxCell>
                <mxCell id="14" value="" style="shape=flexArrow;endArrow=classic;startArrow=classic;html=1;strokeColor=#FF9933;fontColor=#3399FF;" edge="1" parent="1">
                    <mxGeometry width="100" height="100" relative="1" as="geometry">
                        <mxPoint x="130" y="495" as="sourcePoint"/>
                        <mxPoint x="130" y="295" as="targetPoint"/>
                    </mxGeometry>
                </mxCell>
                <mxCell id="15" style="edgeStyle=none;html=1;exitX=1;exitY=0.5;exitDx=0;exitDy=0;strokeColor=#FF9933;fontColor=#3399FF;" edge="1" parent="1">
                    <mxGeometry relative="1" as="geometry">
                        <mxPoint x="330" y="385" as="targetPoint"/>
                        <mxPoint x="200" y="355" as="sourcePoint"/>
                    </mxGeometry>
                </mxCell>
                <mxCell id="16" style="edgeStyle=none;html=1;exitX=1;exitY=0.5;exitDx=0;exitDy=0;strokeColor=#FF9933;fontColor=#3399FF;" edge="1" parent="1">
                    <mxGeometry relative="1" as="geometry">
                        <mxPoint x="330" y="425" as="targetPoint"/>
                        <mxPoint x="200" y="395" as="sourcePoint"/>
                    </mxGeometry>
                </mxCell>
                <mxCell id="17" style="edgeStyle=none;html=1;exitX=1;exitY=0.5;exitDx=0;exitDy=0;strokeColor=#FF9933;fontColor=#3399FF;" edge="1" parent="1">
                    <mxGeometry relative="1" as="geometry">
                        <mxPoint x="330" y="465" as="targetPoint"/>
                        <mxPoint x="200" y="435" as="sourcePoint"/>
                    </mxGeometry>
                </mxCell>
                <mxCell id="18" style="edgeStyle=none;html=1;exitX=1;exitY=0.5;exitDx=0;exitDy=0;strokeColor=#FF9933;fontColor=#3399FF;" edge="1" parent="1">
                    <mxGeometry relative="1" as="geometry">
                        <mxPoint x="330" y="505" as="targetPoint"/>
                        <mxPoint x="200" y="475" as="sourcePoint"/>
                    </mxGeometry>
                </mxCell>
                <mxCell id="19" value="&lt;span style=&quot;font-size: 16px;&quot;&gt;ACK0&lt;/span&gt;" style="text;html=1;align=center;verticalAlign=middle;resizable=0;points=[];autosize=1;strokeColor=none;fillColor=none;fontColor=#3399FF;" vertex="1" parent="1">
                    <mxGeometry x="325" y="325" width="70" height="30" as="geometry"/>
                </mxCell>
                <mxCell id="20" value="&lt;span style=&quot;font-size: 16px;&quot;&gt;ACK1&lt;/span&gt;" style="text;html=1;align=center;verticalAlign=middle;resizable=0;points=[];autosize=1;strokeColor=none;fillColor=none;fontColor=#3399FF;" vertex="1" parent="1">
                    <mxGeometry x="325" y="365" width="70" height="30" as="geometry"/>
                </mxCell>
                <mxCell id="21" value="" style="shape=mxgraph.mockup.markup.redX;fillColor=#ff0000;html=1;shadow=0;strokeColor=none;fontSize=16;fontColor=#3399FF;" vertex="1" parent="1">
                    <mxGeometry x="350" y="415" width="20" height="20" as="geometry"/>
                </mxCell>
                <mxCell id="24" value="" style="endArrow=classic;html=1;fontSize=16;exitX=0.014;exitY=0.7;exitDx=0;exitDy=0;exitPerimeter=0;strokeColor=#FF9933;fontColor=#3399FF;" edge="1" parent="1" source="19">
                    <mxGeometry width="50" height="50" relative="1" as="geometry">
                        <mxPoint x="280" y="205" as="sourcePoint"/>
                        <mxPoint x="170" y="505" as="targetPoint"/>
                    </mxGeometry>
                </mxCell>
                <mxCell id="25" value="" style="endArrow=classic;html=1;fontSize=16;exitX=0.014;exitY=0.7;exitDx=0;exitDy=0;exitPerimeter=0;strokeColor=#FF9933;fontColor=#3399FF;" edge="1" parent="1">
                    <mxGeometry width="50" height="50" relative="1" as="geometry">
                        <mxPoint x="325" y="385" as="sourcePoint"/>
                        <mxPoint x="169.01999999999998" y="544" as="targetPoint"/>
                    </mxGeometry>
                </mxCell>
                <mxCell id="26" value="&lt;span style=&quot;font-size: 16px;&quot;&gt;ACK1&lt;/span&gt;" style="text;html=1;align=center;verticalAlign=middle;resizable=0;points=[];autosize=1;strokeColor=none;fillColor=none;fontColor=#3399FF;" vertex="1" parent="1">
                    <mxGeometry x="325" y="485" width="70" height="30" as="geometry"/>
                </mxCell>
                <mxCell id="27" value="&lt;span style=&quot;font-size: 16px;&quot;&gt;&lt;font color=&quot;#ff3333&quot;&gt;NAK2&lt;/font&gt;&lt;/span&gt;" style="text;html=1;align=center;verticalAlign=middle;resizable=0;points=[];autosize=1;strokeColor=none;fillColor=none;fontColor=#3399FF;" vertex="1" parent="1">
                    <mxGeometry x="325" y="445" width="70" height="30" as="geometry"/>
                </mxCell>
                <mxCell id="52" value="" style="endArrow=none;html=1;strokeColor=#FF9933;fontColor=#3399FF;" edge="1" parent="1">
                    <mxGeometry width="50" height="50" relative="1" as="geometry">
                        <mxPoint x="480" y="697.5" as="sourcePoint"/>
                        <mxPoint x="480" y="297.5" as="targetPoint"/>
                    </mxGeometry>
                </mxCell>
                <mxCell id="53" value="" style="endArrow=none;html=1;strokeColor=#FF9933;fontColor=#3399FF;" edge="1" parent="1">
                    <mxGeometry width="50" height="50" relative="1" as="geometry">
                        <mxPoint x="640" y="697.5" as="sourcePoint"/>
                        <mxPoint x="640" y="297.5" as="targetPoint"/>
                    </mxGeometry>
                </mxCell>
                <mxCell id="54" value="&lt;font style=&quot;font-size: 16px;&quot;&gt;Tx&lt;/font&gt;" style="text;html=1;align=center;verticalAlign=middle;resizable=0;points=[];autosize=1;strokeColor=#FF9933;fillColor=none;fontColor=#3399FF;" vertex="1" parent="1">
                    <mxGeometry x="460" y="252.5" width="40" height="30" as="geometry"/>
                </mxCell>
                <mxCell id="55" value="&lt;font style=&quot;font-size: 16px;&quot;&gt;Rx&lt;/font&gt;" style="text;html=1;align=center;verticalAlign=middle;resizable=0;points=[];autosize=1;strokeColor=#FF9933;fillColor=none;fontColor=#3399FF;" vertex="1" parent="1">
                    <mxGeometry x="620" y="252.5" width="40" height="30" as="geometry"/>
                </mxCell>
                <mxCell id="56" style="edgeStyle=none;html=1;exitX=1;exitY=0.5;exitDx=0;exitDy=0;strokeColor=#FF9933;fontColor=#3399FF;" edge="1" source="57" parent="1">
                    <mxGeometry relative="1" as="geometry">
                        <mxPoint x="640" y="347.5" as="targetPoint"/>
                    </mxGeometry>
                </mxCell>
                <mxCell id="57" value="0" style="ellipse;whiteSpace=wrap;html=1;aspect=fixed;strokeColor=#FF9933;fontColor=#3399FF;" vertex="1" parent="1">
                    <mxGeometry x="490" y="307.5" width="20" height="20" as="geometry"/>
                </mxCell>
                <mxCell id="58" value="1" style="ellipse;whiteSpace=wrap;html=1;aspect=fixed;strokeColor=#FF9933;fontColor=#3399FF;" vertex="1" parent="1">
                    <mxGeometry x="490" y="347.5" width="20" height="20" as="geometry"/>
                </mxCell>
                <mxCell id="59" value="2" style="ellipse;whiteSpace=wrap;html=1;aspect=fixed;strokeColor=#FF9933;fontColor=#3399FF;" vertex="1" parent="1">
                    <mxGeometry x="490" y="387.5" width="20" height="20" as="geometry"/>
                </mxCell>
                <mxCell id="60" value="3" style="ellipse;whiteSpace=wrap;html=1;aspect=fixed;strokeColor=#FF9933;fontColor=#3399FF;" vertex="1" parent="1">
                    <mxGeometry x="490" y="427.5" width="20" height="20" as="geometry"/>
                </mxCell>
                <mxCell id="61" value="4" style="ellipse;whiteSpace=wrap;html=1;aspect=fixed;strokeColor=#FF9933;fontColor=#3399FF;" vertex="1" parent="1">
                    <mxGeometry x="490" y="467.5" width="20" height="20" as="geometry"/>
                </mxCell>
                <mxCell id="62" value="5" style="ellipse;whiteSpace=wrap;html=1;aspect=fixed;strokeColor=#FF9933;fontColor=#3399FF;" vertex="1" parent="1">
                    <mxGeometry x="490" y="507.5" width="20" height="20" as="geometry"/>
                </mxCell>
                <mxCell id="63" value="6" style="ellipse;whiteSpace=wrap;html=1;aspect=fixed;strokeColor=#FF9933;fontColor=#3399FF;" vertex="1" parent="1">
                    <mxGeometry x="490" y="547.5" width="20" height="20" as="geometry"/>
                </mxCell>
                <mxCell id="64" value="" style="shape=flexArrow;endArrow=classic;startArrow=classic;html=1;strokeColor=#FF9933;fontColor=#3399FF;" edge="1" parent="1">
                    <mxGeometry width="100" height="100" relative="1" as="geometry">
                        <mxPoint x="450" y="585" as="sourcePoint"/>
                        <mxPoint x="450" y="385" as="targetPoint"/>
                    </mxGeometry>
                </mxCell>
                <mxCell id="65" style="edgeStyle=none;html=1;exitX=1;exitY=0.5;exitDx=0;exitDy=0;strokeColor=#FF9933;fontColor=#3399FF;" edge="1" parent="1">
                    <mxGeometry relative="1" as="geometry">
                        <mxPoint x="640" y="387.5" as="targetPoint"/>
                        <mxPoint x="510" y="357.5" as="sourcePoint"/>
                    </mxGeometry>
                </mxCell>
                <mxCell id="66" style="edgeStyle=none;html=1;exitX=1;exitY=0.5;exitDx=0;exitDy=0;strokeColor=#FF9933;fontColor=#3399FF;" edge="1" parent="1">
                    <mxGeometry relative="1" as="geometry">
                        <mxPoint x="640" y="427.5" as="targetPoint"/>
                        <mxPoint x="510" y="397.5" as="sourcePoint"/>
                    </mxGeometry>
                </mxCell>
                <mxCell id="67" style="edgeStyle=none;html=1;exitX=1;exitY=0.5;exitDx=0;exitDy=0;strokeColor=#FF9933;fontColor=#3399FF;" edge="1" parent="1">
                    <mxGeometry relative="1" as="geometry">
                        <mxPoint x="640" y="467.5" as="targetPoint"/>
                        <mxPoint x="510" y="437.5" as="sourcePoint"/>
                    </mxGeometry>
                </mxCell>
                <mxCell id="68" style="edgeStyle=none;html=1;exitX=1;exitY=0.5;exitDx=0;exitDy=0;strokeColor=#FF9933;fontColor=#3399FF;" edge="1" parent="1">
                    <mxGeometry relative="1" as="geometry">
                        <mxPoint x="640" y="507.5" as="targetPoint"/>
                        <mxPoint x="510" y="477.5" as="sourcePoint"/>
                    </mxGeometry>
                </mxCell>
                <mxCell id="69" value="&lt;span style=&quot;font-size: 16px;&quot;&gt;ACK0&lt;/span&gt;" style="text;html=1;align=center;verticalAlign=middle;resizable=0;points=[];autosize=1;strokeColor=none;fillColor=none;fontColor=#3399FF;" vertex="1" parent="1">
                    <mxGeometry x="635" y="327.5" width="70" height="30" as="geometry"/>
                </mxCell>
                <mxCell id="70" value="&lt;span style=&quot;font-size: 16px;&quot;&gt;ACK1&lt;/span&gt;" style="text;html=1;align=center;verticalAlign=middle;resizable=0;points=[];autosize=1;strokeColor=none;fillColor=none;fontColor=#3399FF;" vertex="1" parent="1">
                    <mxGeometry x="635" y="367.5" width="70" height="30" as="geometry"/>
                </mxCell>
                <mxCell id="71" value="" style="shape=mxgraph.mockup.markup.redX;fillColor=#ff0000;html=1;shadow=0;strokeColor=none;fontSize=16;fontColor=#3399FF;" vertex="1" parent="1">
                    <mxGeometry x="660" y="417.5" width="20" height="20" as="geometry"/>
                </mxCell>
                <mxCell id="72" value="" style="endArrow=classic;html=1;fontSize=16;exitX=0.014;exitY=0.7;exitDx=0;exitDy=0;exitPerimeter=0;strokeColor=#FF9933;fontColor=#3399FF;" edge="1" source="69" parent="1">
                    <mxGeometry width="50" height="50" relative="1" as="geometry">
                        <mxPoint x="590" y="207.5" as="sourcePoint"/>
                        <mxPoint x="480" y="507.5" as="targetPoint"/>
                    </mxGeometry>
                </mxCell>
                <mxCell id="73" value="" style="endArrow=classic;html=1;fontSize=16;exitX=0.014;exitY=0.7;exitDx=0;exitDy=0;exitPerimeter=0;strokeColor=#FF9933;fontColor=#3399FF;" edge="1" parent="1">
                    <mxGeometry width="50" height="50" relative="1" as="geometry">
                        <mxPoint x="635" y="387.5" as="sourcePoint"/>
                        <mxPoint x="479.02" y="546.5" as="targetPoint"/>
                    </mxGeometry>
                </mxCell>
                <mxCell id="74" value="&lt;span style=&quot;font-size: 16px;&quot;&gt;ACK1&lt;/span&gt;" style="text;html=1;align=center;verticalAlign=middle;resizable=0;points=[];autosize=1;strokeColor=none;fillColor=none;fontColor=#3399FF;" vertex="1" parent="1">
                    <mxGeometry x="635" y="487.5" width="70" height="30" as="geometry"/>
                </mxCell>
                <mxCell id="75" value="&lt;span style=&quot;font-size: 16px;&quot;&gt;&lt;font color=&quot;#ff3333&quot;&gt;NAK2&lt;/font&gt;&lt;/span&gt;" style="text;html=1;align=center;verticalAlign=middle;resizable=0;points=[];autosize=1;strokeColor=none;fillColor=none;fontColor=#3399FF;" vertex="1" parent="1">
                    <mxGeometry x="635" y="447.5" width="70" height="30" as="geometry"/>
                </mxCell>
                <mxCell id="76" style="edgeStyle=none;html=1;exitX=1;exitY=0.5;exitDx=0;exitDy=0;strokeColor=#FF9933;fontColor=#3399FF;" edge="1" parent="1">
                    <mxGeometry relative="1" as="geometry">
                        <mxPoint x="640" y="547.5" as="targetPoint"/>
                        <mxPoint x="510" y="517.5" as="sourcePoint"/>
                    </mxGeometry>
                </mxCell>
                <mxCell id="77" style="edgeStyle=none;html=1;exitX=1;exitY=0.5;exitDx=0;exitDy=0;strokeColor=#FF9933;fontColor=#3399FF;" edge="1" parent="1">
                    <mxGeometry relative="1" as="geometry">
                        <mxPoint x="640" y="585" as="targetPoint"/>
                        <mxPoint x="510" y="555" as="sourcePoint"/>
                    </mxGeometry>
                </mxCell>
                <mxCell id="78" value="&lt;span style=&quot;font-size: 16px;&quot;&gt;ACK1&lt;/span&gt;" style="text;html=1;align=center;verticalAlign=middle;resizable=0;points=[];autosize=1;strokeColor=none;fillColor=none;fontColor=#3399FF;" vertex="1" parent="1">
                    <mxGeometry x="635" y="527.5" width="70" height="30" as="geometry"/>
                </mxCell>
                <mxCell id="79" value="&lt;span style=&quot;font-size: 16px;&quot;&gt;ACK1&lt;/span&gt;" style="text;html=1;align=center;verticalAlign=middle;resizable=0;points=[];autosize=1;strokeColor=none;fillColor=none;fontColor=#3399FF;" vertex="1" parent="1">
                    <mxGeometry x="635" y="570" width="70" height="30" as="geometry"/>
                </mxCell>
                <mxCell id="80" value="" style="endArrow=classic;html=1;fontSize=16;exitX=0.014;exitY=0.7;exitDx=0;exitDy=0;exitPerimeter=0;strokeColor=#B20000;fontColor=#3399FF;fillColor=#e51400;startArrow=none;" edge="1" parent="1" source="81">
                    <mxGeometry width="50" height="50" relative="1" as="geometry">
                        <mxPoint x="645" y="467.5" as="sourcePoint"/>
                        <mxPoint x="489.02" y="626.5" as="targetPoint"/>
                    </mxGeometry>
                </mxCell>
                <mxCell id="82" value="" style="endArrow=none;html=1;fontSize=16;exitX=0.014;exitY=0.7;exitDx=0;exitDy=0;exitPerimeter=0;strokeColor=#B20000;fontColor=#3399FF;fillColor=#e51400;entryX=1;entryY=0;entryDx=0;entryDy=0;" edge="1" parent="1" target="81">
                    <mxGeometry width="50" height="50" relative="1" as="geometry">
                        <mxPoint x="645" y="467.5" as="sourcePoint"/>
                        <mxPoint x="530" y="590" as="targetPoint"/>
                    </mxGeometry>
                </mxCell>
                <mxCell id="81" value="2" style="ellipse;whiteSpace=wrap;html=1;aspect=fixed;strokeColor=#FF9933;fontColor=#3399FF;" vertex="1" parent="1">
                    <mxGeometry x="490" y="610" width="20" height="20" as="geometry"/>
                </mxCell>
                <mxCell id="84" style="edgeStyle=none;html=1;exitX=1;exitY=0.5;exitDx=0;exitDy=0;strokeColor=#FF9933;fontColor=#3399FF;" edge="1" parent="1">
                    <mxGeometry relative="1" as="geometry">
                        <mxPoint x="640" y="650" as="targetPoint"/>
                        <mxPoint x="510" y="620" as="sourcePoint"/>
                    </mxGeometry>
                </mxCell>
                <mxCell id="85" value="&lt;span style=&quot;font-size: 16px;&quot;&gt;ACK6&lt;/span&gt;" style="text;html=1;align=center;verticalAlign=middle;resizable=0;points=[];autosize=1;strokeColor=none;fillColor=none;fontColor=#3399FF;" vertex="1" parent="1">
                    <mxGeometry x="635" y="630" width="70" height="30" as="geometry"/>
                </mxCell>
            </root>
        </mxGraphModel>
    </diagram>
</mxfile>